<svg width="92" height="24" viewBox="0 0 92 24" fill="none" xmlns="http://www.w3.org/2000/svg">
<path d="M15.3823 12.0604C15.3915 11.1918 15.6212 10.3397 16.0497 9.58412C16.4782 8.82852 17.0916 8.19411 17.8323 7.74036C17.362 7.0696 16.7424 6.51722 16.0222 6.12677C15.302 5.73632 14.501 5.51846 13.6823 5.49036C11.9323 5.31036 10.2423 6.49036 9.35231 6.49036C8.46231 6.49036 7.07231 5.49036 5.60231 5.49036C4.64777 5.52104 3.71752 5.79885 2.90248 6.29664C2.08744 6.79443 1.41549 7.49517 0.952307 8.33036C-1.04769 11.8104 0.432307 16.9304 2.36231 19.7404C3.36231 21.1204 4.45231 22.6604 5.93231 22.6104C7.41231 22.5604 7.93231 21.6904 9.65231 21.6904C11.3723 21.6904 11.8823 22.6104 13.3823 22.5704C14.8823 22.5304 15.9123 21.1904 16.8423 19.8004C17.5365 18.8191 18.0668 17.7316 18.4123 16.5804C17.5226 16.1921 16.7652 15.5532 16.2324 14.7417C15.6997 13.9301 15.4147 12.9811 15.4123 12.0104L15.3823 12.0604Z" fill="black"/>
<path d="M12.5431 3.64C13.384 2.62127 13.7995 1.31743 13.7031 0C12.4117 0.135882 11.2191 0.75363 10.3631 1.73C9.52275 2.69546 9.09539 3.95242 9.17307 5.23C9.81912 5.23496 10.4579 5.09358 11.0416 4.81649C11.6252 4.53939 12.1385 4.13376 12.5431 3.63V3.64Z" fill="black"/>
<path d="M28.1974 16.7251H31.5004L29.8709 11.9246H29.8181L28.1886 16.7251H28.1974ZM31.932 18.0903H27.7658L26.7616 21.0411H25L28.9373 10.1013H30.7694L34.7242 21.0411H32.9626L31.932 18.0903Z" fill="black"/>
<path d="M41.5764 17.0599C41.5764 15.4392 40.6956 14.4175 39.4712 14.4175C38.2469 14.4175 37.3749 15.5009 37.3749 17.0599C37.3749 18.619 38.2557 19.7024 39.4712 19.7024C40.6867 19.7024 41.5764 18.6542 41.5764 17.0599ZM43.2587 17.0599C43.2587 19.535 41.9287 21.1293 39.9292 21.1293C39.4216 21.1544 38.9172 21.0365 38.4733 20.7888C38.0295 20.5412 37.6642 20.1739 37.4189 19.7288V23.6837H35.7454V13.1138H37.3308V14.4351C37.5861 13.9922 37.9571 13.6271 38.4039 13.3789C38.8508 13.1306 39.3567 13.0086 39.8676 13.0258C41.8935 13.0258 43.2235 14.6289 43.2235 17.104L43.2587 17.0599Z" fill="black"/>
<path d="M50.3569 17.0596C50.3569 15.4389 49.5201 14.4171 48.2429 14.4171C46.9657 14.4171 46.1554 15.5005 46.1554 17.0596C46.1554 18.6186 47.0362 19.702 48.2429 19.702C49.4496 19.702 50.3569 18.6539 50.3569 17.0596ZM52.0392 17.0596C52.0392 19.5347 50.7092 21.129 48.7098 21.129C48.202 21.1551 47.6971 21.0376 47.2531 20.7899C46.8091 20.5422 46.4439 20.1743 46.1994 19.7285V23.6833H44.5259V13.1135H46.1113V14.4347C46.3681 13.9932 46.7393 13.6291 47.1858 13.3811C47.6323 13.133 48.1375 13.0102 48.6481 13.0254C50.674 13.0254 52.0128 14.6285 52.0128 17.1036L52.0392 17.0596Z" fill="black"/>
<path d="M57.8359 17.9931C57.9592 19.0765 59.0162 19.7547 60.4784 19.7547C61.9405 19.7547 62.8478 19.0413 62.8478 18.0636C62.8478 17.0858 62.2488 16.7071 60.8307 16.3636L59.3861 16.0553C57.3779 15.5708 56.453 14.6284 56.453 13.1046C56.453 11.2196 58.0913 9.9248 60.4255 9.9248C62.7597 9.9248 64.3275 11.2196 64.3804 13.1046H62.7244C62.6275 12.0123 61.7291 11.3429 60.4079 11.3429C59.0867 11.3429 58.1882 12.0123 58.1882 12.9812C58.1882 13.7564 58.7608 14.2144 60.1701 14.5579L61.3768 14.8574C63.6229 15.3859 64.5565 16.2931 64.5565 17.8874C64.5565 19.9309 62.927 21.2169 60.3286 21.2169C57.9064 21.2169 56.2681 19.9661 56.1624 17.9843L57.8359 17.9931Z" fill="black"/>
<path d="M68.0901 11.1841V13.069H69.6051V14.3638H68.0901V18.7679C68.0901 19.455 68.3896 19.772 69.059 19.772C69.2263 19.772 69.4906 19.772 69.5963 19.772V21.058C69.3055 21.1091 69.0106 21.1327 68.7155 21.1285C67.1036 21.1285 66.4694 20.5295 66.4694 18.9793V14.4079H65.2803V13.1131H66.443V11.2281L68.0901 11.1841Z" fill="black"/>
<path d="M76.3785 17.0596C76.3785 15.298 75.5946 14.3203 74.2645 14.3203C72.9345 14.3203 72.1506 15.3421 72.1506 17.0596C72.1506 18.7772 72.9345 19.7902 74.2645 19.7902C75.5946 19.7902 76.3785 18.786 76.3785 17.0596ZM70.4858 17.0596C70.4858 14.5493 71.9568 12.9727 74.2645 12.9727C76.5723 12.9727 78.0433 14.5493 78.0433 17.0596C78.0433 19.57 76.5811 21.1466 74.2645 21.1466C71.948 21.1466 70.4858 19.5788 70.4858 17.0596Z" fill="black"/>
<path d="M79.3975 13.0695H80.9565V14.4259C81.063 14.0018 81.3118 13.6271 81.6612 13.3642C82.0107 13.1013 82.4397 12.9662 82.8767 12.9814C83.0662 12.9827 83.2551 13.0034 83.4404 13.043V14.5757C83.2004 14.5045 82.9507 14.4718 82.7005 14.4788C82.4633 14.4696 82.227 14.5119 82.0076 14.6026C81.7883 14.6933 81.5911 14.8303 81.4297 15.0043C81.2683 15.1783 81.1463 15.3852 81.0722 15.6107C80.9982 15.8362 80.9737 16.075 81.0005 16.3109V21.0409H79.3975V13.1135V13.0695Z" fill="black"/>
<path d="M85.4848 16.3198H89.4749C89.4895 16.0559 89.4495 15.7918 89.3573 15.5441C89.2651 15.2963 89.1228 15.0703 88.9392 14.8801C88.7557 14.69 88.5348 14.5397 88.2905 14.4389C88.0462 14.338 87.7837 14.2886 87.5195 14.2939C87.2527 14.2927 86.9883 14.3443 86.7415 14.4456C86.4947 14.5468 86.2703 14.6959 86.0813 14.8841C85.8922 15.0724 85.7422 15.2961 85.6398 15.5425C85.5375 15.7888 85.4848 16.053 85.4848 16.3198ZM91.0163 18.698C90.7961 20.1513 89.3868 21.1466 87.5899 21.1466C85.2646 21.1466 83.8289 19.5876 83.8289 17.0949C83.8289 14.6022 85.2734 12.9727 87.5195 12.9727C89.7656 12.9727 91.1132 14.4877 91.1132 16.9011V17.4648H85.476V17.5617C85.4509 17.8556 85.4884 18.1514 85.586 18.4297C85.6836 18.708 85.839 18.9625 86.0421 19.1763C86.2451 19.3902 86.4912 19.5586 86.7641 19.6705C87.0369 19.7824 87.3304 19.8352 87.6252 19.8254C88.0136 19.8683 88.4053 19.7808 88.7386 19.5767C89.0718 19.3726 89.3278 19.0635 89.4661 18.698H91.0163Z" fill="black"/>
<path d="M27.0329 4.09338H27.7376C27.8618 4.1084 27.9878 4.09678 28.1072 4.05929C28.2266 4.0218 28.3366 3.95931 28.4299 3.87597C28.5233 3.79263 28.5978 3.69036 28.6485 3.57597C28.6992 3.46158 28.725 3.33769 28.7241 3.21257C28.7241 2.72812 28.363 2.41102 27.7464 2.41102C27.6218 2.39378 27.495 2.40164 27.3735 2.43415C27.252 2.46666 27.1383 2.52316 27.0389 2.60032C26.9396 2.67748 26.8567 2.77374 26.7952 2.88343C26.7337 2.99311 26.6947 3.11401 26.6806 3.23899H25.9143C25.9257 3.0131 25.9838 2.79201 26.0849 2.58967C26.186 2.38734 26.3279 2.20812 26.5017 2.06332C26.6754 1.91852 26.8773 1.81127 27.0946 1.74832C27.3118 1.68537 27.5397 1.66809 27.764 1.69756C28.8034 1.69756 29.5256 2.2789 29.5256 3.11568C29.5262 3.3949 29.4313 3.66592 29.2567 3.8838C29.082 4.10168 28.8382 4.25332 28.5656 4.31359V4.37525C28.7264 4.38204 28.8843 4.42048 29.0303 4.48837C29.1762 4.55626 29.3073 4.65227 29.4162 4.7709C29.525 4.88953 29.6093 5.02845 29.6644 5.17971C29.7194 5.33098 29.7441 5.49161 29.737 5.65243C29.7162 5.88664 29.6487 6.11431 29.5386 6.32203C29.4284 6.52975 29.2777 6.71331 29.0955 6.86189C28.9133 7.01047 28.7031 7.12107 28.4775 7.18716C28.2518 7.25325 28.0152 7.2735 27.7816 7.24671C26.6366 7.24671 25.8526 6.63014 25.8086 5.68766H26.5925C26.5925 6.18973 27.1034 6.51563 27.7816 6.51563C28.4599 6.51563 28.9091 6.1545 28.9091 5.63481C28.9091 5.11513 28.4863 4.754 27.7552 4.754H27.0329V4.04054V4.09338Z" fill="black"/>
<path d="M33.1901 5.67017V5.33546L32.2212 5.39712C31.6751 5.39712 31.4197 5.61732 31.4197 5.96964C31.4197 6.32197 31.7368 6.53337 32.1596 6.53337C32.2855 6.54542 32.4126 6.53201 32.5332 6.49391C32.6538 6.45581 32.7656 6.39382 32.8617 6.31163C32.9579 6.22943 33.0365 6.12872 33.093 6.01549C33.1494 5.90225 33.1824 5.77882 33.1901 5.65255V5.67017ZM30.6357 6.00488C30.6357 5.29142 31.173 4.87743 32.1155 4.82458L33.1901 4.76293V4.41941C33.1901 3.99662 32.9083 3.7588 32.371 3.7588C31.8337 3.7588 31.6311 3.92615 31.543 4.1992H30.7855C30.8736 3.52098 31.5078 3.08057 32.415 3.08057C33.3222 3.08057 33.9652 3.58263 33.9652 4.41941V7.12352H33.2077V6.5686H33.1461C33.0212 6.76901 32.8453 6.93257 32.6363 7.04247C32.4273 7.15238 32.1928 7.20467 31.957 7.19398C31.7904 7.21122 31.622 7.19333 31.4627 7.14146C31.3034 7.08959 31.1568 7.00489 31.0323 6.89284C30.9078 6.78078 30.8082 6.64385 30.7399 6.49091C30.6716 6.33796 30.6361 6.17239 30.6357 6.00488Z" fill="black"/>
<path d="M36.0442 3.82099V7.13287H35.2603V3.16919H37.8763V3.82099H36.0442Z" fill="black"/>
<path d="M41.8119 5.14166C41.8119 4.26084 41.4156 3.80282 40.7462 3.80282C40.0767 3.80282 39.6804 4.31369 39.6804 5.14166C39.6804 5.96963 40.0944 6.48931 40.7462 6.48931C41.398 6.48931 41.8119 5.98725 41.8119 5.14166ZM42.6135 5.14166C42.6135 6.40123 41.9793 7.19396 40.9752 7.19396C40.7296 7.21141 40.4842 7.1575 40.2686 7.03874C40.0529 6.91997 39.8762 6.74141 39.7596 6.52454H39.6892V8.44473H38.9141V3.15982H39.6628V3.82044H39.7244C39.8438 3.59651 40.0233 3.41031 40.2427 3.28272C40.4621 3.15514 40.7127 3.09123 40.9664 3.09817C41.9793 3.09817 42.6135 3.88209 42.6135 5.14166Z" fill="black"/>
<path d="M43.6561 8.55079V7.87256H43.9116C44.0794 7.8862 44.2462 7.83695 44.3797 7.73439C44.5132 7.63183 44.6038 7.48329 44.6338 7.31765L44.6955 7.12387L43.2598 3.14258H44.1406L45.1359 6.2959H45.1976L46.1929 3.14258H47.0209L45.5411 7.27361C45.2064 8.24251 44.8276 8.55079 44.0173 8.55079H43.6914H43.6561Z" fill="black"/>
<path d="M47.5924 6.00526H48.3763C48.4468 6.34878 48.7815 6.53375 49.2571 6.53375C49.7327 6.53375 50.1379 6.30474 50.1379 5.94361C50.1379 5.58247 49.8561 5.37988 49.2571 5.37988H48.6582V4.77212H49.1954C49.6623 4.77212 49.9089 4.59596 49.9089 4.26125C49.9089 3.92653 49.7063 3.72395 49.1954 3.72395C48.6846 3.72395 48.4291 3.90892 48.3851 4.2172H47.6276C47.6903 3.86132 47.8889 3.54376 48.1815 3.33171C48.4741 3.11966 48.8377 3.02973 49.1954 3.08095C50.1379 3.08095 50.6752 3.51255 50.6752 4.18197C50.6785 4.36798 50.6183 4.54957 50.5047 4.69686C50.391 4.84414 50.2306 4.94834 50.0498 4.99232V5.05398C50.2647 5.07994 50.4624 5.18408 50.6054 5.34654C50.7484 5.509 50.8265 5.7184 50.825 5.9348C50.825 6.6923 50.182 7.19436 49.2043 7.19436C48.2266 7.19436 47.6276 6.798 47.5571 5.99646L47.5924 6.00526Z" fill="black"/>
<path d="M51.9888 7.13287V3.16919H52.7639V5.89091H52.8255L54.6488 3.16919H55.4328V7.13287H54.6488V4.38472H54.596L52.7639 7.13287H51.9888Z" fill="black"/>
<path d="M59.7024 3.82099H58.4517V7.13287H57.6678V3.82099H56.417V3.16919H59.7024V3.82099Z" fill="black"/>
<path d="M61.164 4.78119H63.1635C63.1772 4.64572 63.162 4.50886 63.1189 4.37971C63.0757 4.25055 63.0056 4.13206 62.9131 4.0321C62.8206 3.93213 62.708 3.85298 62.5825 3.7999C62.4571 3.74681 62.3219 3.72101 62.1857 3.72421C62.0505 3.72302 61.9164 3.74892 61.7913 3.8004C61.6662 3.85188 61.5527 3.92788 61.4575 4.02393C61.3622 4.11999 61.2872 4.23414 61.2368 4.35966C61.1864 4.48518 61.1616 4.61953 61.164 4.75477V4.78119ZM63.9121 6.05838C63.8153 6.42917 63.5887 6.75297 63.2736 6.97112C62.9585 7.18926 62.5757 7.2873 62.1946 7.24748C61.9316 7.26146 61.6689 7.21633 61.4257 7.11541C61.1826 7.01449 60.9651 6.86034 60.7893 6.6643C60.6136 6.46826 60.484 6.23532 60.4101 5.9826C60.3362 5.72989 60.32 5.46382 60.3625 5.20398C60.3286 4.94379 60.3507 4.67935 60.4273 4.4284C60.504 4.17746 60.6334 3.94579 60.8069 3.74894C60.9804 3.55209 61.1939 3.39461 61.4333 3.28704C61.6726 3.17947 61.9322 3.12431 62.1946 3.12526C63.2956 3.12526 63.9562 3.88276 63.9562 5.12471V5.39777H61.164C61.1517 5.54338 61.17 5.68996 61.2177 5.82808C61.2654 5.96621 61.3415 6.09284 61.441 6.19984C61.5405 6.30683 61.6613 6.39183 61.7957 6.44938C61.93 6.50693 62.0749 6.53576 62.221 6.53402C62.4074 6.5555 62.596 6.52189 62.7635 6.43736C62.931 6.35283 63.07 6.22108 63.1635 6.05838H63.9121Z" fill="black"/>
<path d="M68.0095 5.36269V6.52536H68.9432C69.4012 6.52536 69.6478 6.32278 69.6478 5.94403C69.6478 5.56527 69.3659 5.36269 68.8463 5.36269H68.0095ZM68.0095 3.7596V4.79015H68.7846C69.2602 4.79015 69.4893 4.60518 69.4893 4.27047C69.4893 3.93576 69.2867 3.7596 68.8727 3.7596H68.0095ZM67.2344 3.16064H68.996C69.7711 3.16064 70.2291 3.55701 70.2291 4.17358C70.235 4.37479 70.1718 4.57194 70.05 4.7322C69.9282 4.89247 69.7552 5.00617 69.5597 5.0544V5.11606C69.7933 5.11606 70.0174 5.20886 70.1826 5.37404C70.3477 5.53923 70.4405 5.76327 70.4405 5.99688C70.4405 6.68391 69.9209 7.13313 69.0489 7.13313H67.2872V3.16945L67.2344 3.16064Z" fill="black"/>
</svg>
