<svg width="23" height="21" viewBox="0 0 23 21" fill="none" xmlns="http://www.w3.org/2000/svg">
<path fill-rule="evenodd" clip-rule="evenodd" d="M9.96515 17.7719C9.32845 17.7719 8.8123 18.288 8.8123 18.9248C8.8123 19.5615 9.32845 20.0776 9.96515 20.0776C10.6019 20.0776 11.118 19.5615 11.118 18.9248C11.118 18.288 10.6019 17.7719 9.96515 17.7719ZM7.89001 18.9248C7.89001 17.7787 8.81909 16.8496 9.96515 16.8496C11.1112 16.8496 12.0403 17.7787 12.0403 18.9248C12.0403 20.0708 11.1112 20.9999 9.96515 20.9999C8.81909 20.9999 7.89001 20.0708 7.89001 18.9248Z" fill="white"/>
<path fill-rule="evenodd" clip-rule="evenodd" d="M19.8433 17.7719C19.2066 17.7719 18.6905 18.288 18.6905 18.9248C18.6905 19.5615 19.2066 20.0776 19.8433 20.0776C20.48 20.0776 20.9962 19.5615 20.9962 18.9248C20.9962 18.288 20.48 17.7719 19.8433 17.7719ZM17.7682 18.9248C17.7682 17.7787 18.6973 16.8496 19.8433 16.8496C20.9894 16.8496 21.9185 17.7787 21.9185 18.9248C21.9185 20.0708 20.9894 20.9999 19.8433 20.9999C18.6973 20.9999 17.7682 20.0708 17.7682 18.9248Z" fill="white"/>
<path fill-rule="evenodd" clip-rule="evenodd" d="M4.90902 4.17972C5.00141 4.05779 5.14826 3.98961 5.30103 3.99772L22.4537 4.90848C22.5853 4.91547 22.7076 4.9784 22.7898 5.08139C22.8719 5.18439 22.9061 5.31761 22.8837 5.44744L21.6693 12.4806C21.6346 12.6815 21.4721 12.8358 21.2696 12.86L9.10659 14.3137L9.50314 15.4828H20.9113C21.166 15.4828 21.3725 15.6893 21.3725 15.9439C21.3725 16.1986 21.166 16.4051 20.9113 16.4051H9.17262C8.97502 16.4051 8.79939 16.2792 8.73591 16.0921L4.83987 4.60635C4.79073 4.46147 4.81664 4.30166 4.90902 4.17972ZM8.80379 13.4211L20.819 11.985L21.8865 5.80195L5.93197 4.95481L8.80379 13.4211Z" fill="white"/>
<path fill-rule="evenodd" clip-rule="evenodd" d="M0.109741 0.461143C0.109741 0.206461 0.316202 0 0.570884 0H3.91035C4.10704 0 4.28209 0.124763 4.34626 0.310695L6.31958 6.02826C6.40267 6.26901 6.27486 6.53153 6.03411 6.61462C5.79337 6.69771 5.53085 6.5699 5.44776 6.32916L3.58167 0.922285H0.570884C0.316202 0.922285 0.109741 0.715825 0.109741 0.461143Z" fill="white"/>
<path fill-rule="evenodd" clip-rule="evenodd" d="M22.1814 8.53593C22.1927 8.79036 21.9955 9.00577 21.7411 9.01706L6.91592 9.67483C6.66149 9.68612 6.44608 9.48901 6.43479 9.23458C6.4235 8.98015 6.62061 8.76474 6.87504 8.75345L21.7002 8.09568C21.9547 8.08439 22.1701 8.28149 22.1814 8.53593Z" fill="white"/>
<path fill-rule="evenodd" clip-rule="evenodd" d="M10.3821 4.31231C10.63 4.25365 10.8784 4.40701 10.9371 4.65484L12.961 13.2059C13.0197 13.4537 12.8663 13.7022 12.6185 13.7608C12.3706 13.8195 12.1222 13.6661 12.0635 13.4183L10.0396 4.86726C9.98094 4.61943 10.1343 4.37097 10.3821 4.31231Z" fill="white"/>
<path fill-rule="evenodd" clip-rule="evenodd" d="M17.364 4.70932C17.6174 4.7345 17.8025 4.96036 17.7773 5.21379L17.0183 12.8541C16.9932 13.1075 16.7673 13.2926 16.5139 13.2674C16.2604 13.2422 16.0754 13.0163 16.1006 12.7629L16.8595 5.12262C16.8847 4.86919 17.1106 4.68415 17.364 4.70932Z" fill="white"/>
</svg>
